<?xml version="1.0" encoding="utf-8"?>
<!-- Generator: Adobe Illustrator 22.0.0, SVG Export Plug-In . SVG Version: 6.00 Build 0)  -->
<svg version="1.1" id="Capa_1" xmlns="http://www.w3.org/2000/svg" xmlns:xlink="http://www.w3.org/1999/xlink" x="0px" y="0px"
	 viewBox="0 0 64 64" style="enable-background:new 0 0 64 64;" xml:space="preserve">
<style type="text/css">
	.st0{fill:#FFFFFF;stroke:#000000;stroke-miterlimit:10;}
	.st1{fill:#232020;}
	.st2{fill:none;stroke:#212020;stroke-width:3;stroke-miterlimit:10;}
	.st3{enable-background:new    ;}
	.st4{clip-path:url(#SVGID_2_);}
	.st5{clip-path:url(#SVGID_4_);}
	.st6{clip-path:url(#SVGID_6_);}
	.st7{clip-path:url(#SVGID_8_);}
	.st8{clip-path:url(#SVGID_10_);}
	.st9{clip-path:url(#SVGID_12_);fill:#232020;}
	.st10{clip-path:url(#SVGID_12_);fill:#212020;}
	.st11{fill:#FFFFFF;}
	.st12{stroke:#000000;stroke-width:0.25;stroke-miterlimit:10;}
	.st13{fill:none;stroke:#FFFFFF;stroke-miterlimit:10;}
	.st14{clip-path:url(#SVGID_14_);}
	.st15{clip-path:url(#SVGID_16_);}
	.st16{clip-path:url(#SVGID_18_);}
	.st17{clip-path:url(#SVGID_20_);}
	.st18{clip-path:url(#SVGID_22_);enable-background:new    ;}
	.st19{clip-path:url(#SVGID_26_);}
	.st20{clip-path:url(#SVGID_27_);}
	.st21{clip-path:url(#SVGID_28_);fill:#FFFFFF;}
	.st22{fill:#FFFFFF;stroke:#FFFFFF;stroke-miterlimit:10;}
	.st23{fill:none;stroke:#FFFFFF;stroke-width:0.5;stroke-miterlimit:10;}
	.st24{fill:none;stroke:#FFFFFF;stroke-width:0.15;stroke-miterlimit:10;}
	.st25{fill:#232020;stroke:#FFFFFF;stroke-width:0.1;stroke-miterlimit:10;}
	.st26{fill:none;stroke:#FFFFFF;stroke-width:5.000000e-02;stroke-miterlimit:10;}
	.st27{fill:none;stroke:#FFFFFF;stroke-width:0.3;stroke-miterlimit:10;}
	.st28{fill:none;stroke:#FFFFFF;stroke-width:1.5;stroke-miterlimit:10;}
	.st29{fill:none;stroke:#FFFFFF;stroke-width:2;stroke-miterlimit:10;}
</style>
<g>
	<circle class="st29" cx="32" cy="32" r="30"/>
	<g>
		<path class="st13" d="M22.1,23.8c-3.8,0-6.9-3.1-6.9-6.9s3.1-6.9,6.9-6.9s6.9,3.1,6.9,6.9C29,20.8,25.9,23.8,22.1,23.8z
			 M22.1,10.9c-3.4,0-6.1,2.7-6.1,6.1s2.7,6.1,6.1,6.1s6.1-2.7,6.1-6.1C28.3,13.6,25.5,10.9,22.1,10.9z"/>
		<path class="st13" d="M30.8,38.1H13.9c-0.2,0-0.4-0.2-0.4-0.4v-5.8c0-4.9,4-8.8,8.8-8.8s8.8,4,8.8,8.8v5.8
			C31.2,38,31,38.1,30.8,38.1z M14.3,37.3h16.1v-5.4c0-4.4-3.6-8.1-8.1-8.1c-4.4,0-8.1,3.6-8.1,8.1L14.3,37.3L14.3,37.3z"/>
	</g>
	<path class="st22" d="M13.4,50.6h36.1c0.5,0,0.9-0.3,0.9-0.6s-0.4-0.6-0.9-0.6H13.4c-0.5,0-0.9,0.3-0.9,0.6S12.9,50.6,13.4,50.6z"
		/>
	<path class="st22" d="M34.9,31.9h14.6c0.5,0,1-0.3,1-0.6s-0.4-0.6-1-0.6H34.9c-0.5,0-1,0.3-1,0.6S34.4,31.9,34.9,31.9z"/>
	<path class="st22" d="M13.4,44.4h36.1c0.5,0,0.9-0.3,0.9-0.6s-0.4-0.7-0.9-0.7H13.4c-0.5,0-0.9,0.3-0.9,0.6S12.9,44.4,13.4,44.4z"
		/>
	<path class="st22" d="M49.5,18.2H34.9c-0.5,0-1,0.3-1,0.6c0,0.3,0.4,0.6,1,0.6h14.6c0.5,0,1-0.3,1-0.6S50.1,18.2,49.5,18.2z"/>
	<path class="st22" d="M34.9,24.4c-0.5,0-1,0.3-1,0.6s0.4,0.7,1,0.7h14.6c0.5,0,1-0.3,1-0.6s-0.4-0.6-1-0.6L34.9,24.4L34.9,24.4z"/>
	<path class="st22" d="M34.9,13.2h14.6c0.5,0,1-0.3,1-0.6s-0.4-0.6-1-0.6H34.9c-0.5,0-1,0.3-1,0.6S34.4,13.2,34.9,13.2z"/>
	<path class="st22" d="M34.9,38.1h14.6c0.5,0,1-0.3,1-0.6c0-0.3-0.4-0.6-1-0.6H34.9c-0.5,0-1,0.3-1,0.6
		C33.9,37.8,34.4,38.1,34.9,38.1z"/>
</g>
</svg>
