<?xml version="1.0" encoding="utf-8"?>
<!-- Generator: Adobe Illustrator 22.0.0, SVG Export Plug-In . SVG Version: 6.00 Build 0)  -->
<svg version="1.1" id="Capa_1" xmlns="http://www.w3.org/2000/svg" xmlns:xlink="http://www.w3.org/1999/xlink" x="0px" y="0px"
	 viewBox="0 0 64 64" style="enable-background:new 0 0 64 64;" xml:space="preserve">
<style type="text/css">
	.st0{fill:#FFFFFF;stroke:#000000;stroke-miterlimit:10;}
	.st1{fill:#232020;}
	.st2{fill:none;stroke:#212020;stroke-width:3;stroke-miterlimit:10;}
	.st3{enable-background:new    ;}
	.st4{clip-path:url(#SVGID_2_);}
	.st5{clip-path:url(#SVGID_4_);}
	.st6{clip-path:url(#SVGID_6_);}
	.st7{clip-path:url(#SVGID_8_);}
	.st8{clip-path:url(#SVGID_10_);}
	.st9{clip-path:url(#SVGID_12_);fill:#232020;}
	.st10{clip-path:url(#SVGID_12_);fill:#212020;}
	.st11{fill:#FFFFFF;}
	.st12{stroke:#000000;stroke-width:0.25;stroke-miterlimit:10;}
	.st13{fill:none;stroke:#FFFFFF;stroke-miterlimit:10;}
	.st14{fill:none;stroke:#FFFFFF;stroke-width:2;stroke-miterlimit:10;}
	.st15{fill:#FFFFFF;stroke:#FFFFFF;stroke-miterlimit:10;}
	.st16{fill:none;stroke:#FFFFFF;stroke-width:0.5;stroke-miterlimit:10;}
	.st17{fill:none;stroke:#FFFFFF;stroke-width:0.15;stroke-miterlimit:10;}
	.st18{fill:#232020;stroke:#FFFFFF;stroke-width:0.1;stroke-miterlimit:10;}
	.st19{fill:none;stroke:#FFFFFF;stroke-width:5.000000e-02;stroke-miterlimit:10;}
	.st20{fill:none;stroke:#FFFFFF;stroke-width:0.3;stroke-miterlimit:10;}
	.st21{fill:none;stroke:#FFFFFF;stroke-width:1.5;stroke-miterlimit:10;}
	.st22{fill:#FFFFFF;stroke:#FFFFFF;stroke-width:0.5;stroke-miterlimit:10;}
	.st23{clip-path:url(#SVGID_14_);enable-background:new    ;}
	.st24{clip-path:url(#SVGID_18_);}
	.st25{clip-path:url(#SVGID_19_);}
	.st26{clip-path:url(#SVGID_20_);fill:#FFFFFF;}
	.st27{clip-path:url(#SVGID_22_);}
</style>
<circle class="st14" cx="32" cy="32.3" r="30"/>
<g>
	<path class="st22" d="M5.4,25l26.3,15.4c0.1,0.1,0.2,0.1,0.3,0.1c0.1,0,0.2,0,0.3-0.1L58.6,25c0.3-0.1,0.4-0.4,0.4-0.8
		c0-0.3-0.2-0.6-0.4-0.8L32.3,9.2c-0.2-0.1-0.4-0.1-0.6,0L5.4,23.5C5.2,23.6,5,23.9,5,24.3C5,24.6,5.2,24.9,5.4,25z M32,10.9
		l24.6,13.4L32,38.7L7.4,24.3L32,10.9z"/>
	<path class="st22" d="M58.6,30.5l-5.7-3.1c-0.4-0.2-0.8,0-1,0.4c-0.2,0.4,0,0.9,0.4,1.1l4.3,2.4L32,45.7L7.4,31.3l4.3-2.3
		c0.4-0.2,0.5-0.7,0.4-1.1c-0.2-0.4-0.6-0.6-1-0.4l-5.6,3.1C5.2,30.6,5,30.9,5,31.2c0,0.3,0.2,0.6,0.4,0.8l26.3,15.4
		c0.1,0.1,0.2,0.1,0.3,0.1c0.1,0,0.2,0,0.3-0.1L58.6,32c0.3-0.1,0.4-0.4,0.4-0.8C59,30.9,58.8,30.6,58.6,30.5z"/>
	<path class="st22" d="M58.6,37.9l-5.7-3.1c-0.4-0.2-0.8,0-1,0.4c-0.2,0.4,0,0.9,0.4,1.1l4.3,2.4L32,53.1L7.4,38.7l4.3-2.3
		c0.4-0.2,0.5-0.7,0.4-1.1c-0.2-0.4-0.6-0.6-1-0.4l-5.6,3.1C5.2,38,5,38.3,5,38.7c0,0.3,0.2,0.6,0.4,0.8l26.3,15.4
		c0.1,0.1,0.2,0.1,0.3,0.1c0.1,0,0.2,0,0.3-0.1l26.3-15.4c0.3-0.1,0.4-0.4,0.4-0.8C59,38.3,58.8,38,58.6,37.9z"/>
</g>
<g>
	<g>
		<g class="st3">
			<defs>
				<polygon id="SVGID_21_" class="st3" points="22.3,30.9 20.9,15.6 43.7,18.9 45.1,34.2 				"/>
			</defs>
			<clipPath id="SVGID_2_">
				<use xlink:href="#SVGID_21_"  style="overflow:visible;"/>
			</clipPath>
			<g class="st4">
				<g>
					<g>
						<g>
							<path class="st11" d="M22.7,23.8c-0.1,0-0.2,0-0.3,0c-0.6,0-0.9,0.3-0.7,0.7l2.3,5.1c0.1,0.3,0.5,0.5,0.9,0.6l7.9,2l0.2,0
								c0.3,0,0.6,0,0.8-0.1c0.1-0.1,0.2-0.2,0.2-0.3c0.1-0.4-0.4-0.8-1-0.9l-7.1-1.8l-2.1-4.6C23.6,24.1,23.2,23.8,22.7,23.8"/>
							<path class="st11" d="M33.1,18c-0.2,0-0.4,0-0.6,0c-0.2,0.1-0.4,0.2-0.4,0.4c-0.1,0.4,0.4,0.8,1,0.9l7.2,1.8l2.1,4.6
								c0.1,0.2,0.3,0.4,0.5,0.5c0.2,0.1,0.4,0.2,0.6,0.2l0.3,0c0.2,0,0.4,0,0.5-0.1l0,0c0.2-0.1,0.3-0.3,0.2-0.6L42,20.6
								c-0.1-0.3-0.5-0.5-0.9-0.6l-7.9-2C33.2,18,33.1,18,33.1,18"/>
							<path class="st11" d="M26.4,16.4c-0.2,0-0.3,0-0.5,0c-0.5,0.1-0.7,0.5-0.4,0.8L38,32.8c0.2,0.3,0.6,0.5,1,0.5
								c0.2,0,0.3,0,0.5,0c0.1,0,0.2-0.1,0.3-0.1c0.3-0.2,0.3-0.5,0.1-0.7L27.4,16.9c-0.1-0.2-0.4-0.3-0.7-0.4
								C26.6,16.4,26.5,16.4,26.4,16.4"/>
						</g>
					</g>
				</g>
			</g>
		</g>
	</g>
</g>
</svg>
