<?xml version="1.0" encoding="utf-8"?>
<!-- Generator: Adobe Illustrator 22.0.0, SVG Export Plug-In . SVG Version: 6.00 Build 0)  -->
<svg version="1.1" id="Capa_1" xmlns="http://www.w3.org/2000/svg" xmlns:xlink="http://www.w3.org/1999/xlink" x="0px" y="0px"
	 viewBox="0 0 64 64" style="enable-background:new 0 0 64 64;" xml:space="preserve">
<style type="text/css">
	.st0{fill:#FFFFFF;stroke:#000000;stroke-miterlimit:10;}
	.st1{fill:#232020;}
	.st2{fill:none;stroke:#FFFFFF;stroke-width:2;stroke-miterlimit:10;}
	.st3{fill:#FFFFFF;}
	.st4{stroke:#000000;stroke-width:0.25;stroke-miterlimit:10;}
	.st5{fill:#FFFFFF;stroke:#FFFFFF;stroke-miterlimit:10;}
	.st6{fill:none;stroke:#FFFFFF;stroke-width:0.5;stroke-miterlimit:10;}
	.st7{fill:none;stroke:#FFFFFF;stroke-width:0.15;stroke-miterlimit:10;}
	.st8{fill:#232020;stroke:#FFFFFF;stroke-width:0.1;stroke-miterlimit:10;}
	.st9{fill:none;stroke:#FFFFFF;stroke-width:5.000000e-02;stroke-miterlimit:10;}
	.st10{fill:none;stroke:#FFFFFF;stroke-width:0.3;stroke-miterlimit:10;}
	.st11{fill:none;stroke:#FFFFFF;stroke-miterlimit:10;}
	.st12{fill:none;stroke:#FFFFFF;stroke-width:1.5;stroke-miterlimit:10;}
	.st13{fill:#FFFFFF;stroke:#FFFFFF;stroke-width:0.5;stroke-miterlimit:10;}
	.st14{enable-background:new    ;}
	.st15{clip-path:url(#SVGID_1_);}
	.st16{fill:#003567;stroke:#FFFFFF;stroke-width:0.5;stroke-miterlimit:10;}
	.st17{fill:#356600;stroke:#FFFFFF;stroke-width:0.5;stroke-miterlimit:10;}
	.st18{fill:#708090;stroke:#FFFFFF;stroke-width:0.5;stroke-miterlimit:10;}
	.st19{fill:#761622;stroke:#FFFFFF;stroke-width:0.5;stroke-miterlimit:10;}
	.st20{fill:none;stroke:#FFFFFF;stroke-width:0.25;stroke-miterlimit:10;}
</style>
<circle class="st16" cx="20.4" cy="27" r="3.6"/>
<circle class="st17" cx="31.8" cy="44" r="3.6"/>
<circle class="st18" cx="44.2" cy="45.3" r="3.6"/>
<circle class="st19" cx="22" cy="37.7" r="3.6"/>
<circle class="st2" cx="32" cy="32" r="30"/>
<g>
	<path class="st3" d="M33.5,38.1c-0.8,0-1.6,0-2.5-0.1l0.5-1c8,0.4,13.2-1.4,15.8-4.6c2.4-2.9,1.5-6.4,1.5-6.4l1.2-0.3
		c0,0.2,1.1,4.1-1.7,7.5C45.6,36.5,40.7,38.1,33.5,38.1z"/>
	<path class="st3" d="M31.5,38c-0.3,0-0.3,0.1-0.5,0l0.3-1c0.6-0.2,0.5-0.2,0.8-0.4c0.6-0.4,2.8-1.9,4.7-8.4c2.2-7.6,8-6.1,8-6
		l-0.3,1.2c-0.2-0.1-4.6-1.2-6.5,5.2c-1.4,4.8-3.3,8.1-5.3,9.1C32.2,38,31.8,38,31.5,38z"/>
	<path class="st3" d="M49.6,26.1c-1.8,0-3.3-0.5-4.2-1.5c-1.4-1.4-1.3-3.3-1.3-3.4l0-0.2l0.1-0.2c0-0.1,4-5.4,7.6-11l1.1,0.7
		c-3.2,5-6.8,9.9-7.5,10.9c0,0.4,0.1,1.5,0.9,2.3c0.8,0.8,1.9,1.1,3.5,1.1l6.1-11.4l1.1,0.6l-6.5,12l-0.4,0
		C50,26.1,49.8,26.1,49.6,26.1z"/>
</g>
<g>
	<path class="st3" d="M50.7,17h-0.4c-0.2,0-0.3-0.1-0.3-0.3v3c0,0.6-0.4,1-1,1h-1.3c0.2,0,0.3,0.1,0.3,0.3v0.4
		c0,0.2-0.1,0.3-0.3,0.3H49c0.3,0,0.5,0.1,0.7,0.3c0,0,0-0.1,0-0.1v-1.2c0-0.2,0.2-0.3,0.4-0.3h0.5c0.2,0,0.4,0.1,0.4,0.3v-4
		C51,16.9,50.9,17,50.7,17z"/>
	<path class="st3" d="M50.7,15.1h-0.4c-0.2,0-0.3,0.1-0.3,0.3v1.2c0,0.2,0.1,0.3,0.3,0.3h0.4c0.2,0,0.3-0.1,0.3-0.3v-1.2
		C51,15.3,50.9,15.1,50.7,15.1z"/>
	<path class="st3" d="M50.7,31.8h-0.4c-0.2,0-0.3-0.1-0.3-0.3v17.1c0,0.6-0.4,1-1,1H15c-0.6,0-1-0.4-1-1V22.7c0-0.6,0.4-1,1-1h26.4
		c-0.2,0-0.3-0.1-0.3-0.3V21c0-0.2,0.1-0.3,0.3-0.3H15c-0.6,0-1-0.4-1-1v-4.5c0-0.6,0.4-1,1-1h32c-0.2,0-0.3-0.1-0.3-0.3v-0.4
		c0-0.2,0.1-0.3,0.3-0.3H14c-0.6,0-1,0.4-1,1v35.5c0,0.6,0.4,1,1,1h36c0.6,0,1-0.4,1-1V31.5C51,31.7,50.9,31.8,50.7,31.8z"/>
	<path class="st3" d="M48.5,13.8v-0.4c0-0.2-0.1-0.3-0.3-0.3H47c-0.2,0-0.3,0.1-0.3,0.3v0.4c0,0.2,0.1,0.3,0.3,0.3h1.2
		C48.4,14.2,48.5,14,48.5,13.8z"/>
	<path class="st3" d="M50.6,20.3H50c-0.2,0-0.4,0.1-0.4,0.3v1.2c0,0,0,0.1,0,0.1c0,0,0.1,0.1,0.1,0.1c0.1,0.1,0.2,0.1,0.3,0.1h0.5
		c0.2,0,0.4-0.1,0.4-0.3v-1.2C51,20.5,50.8,20.3,50.6,20.3z"/>
	<path class="st3" d="M50.7,30h-0.4c-0.2,0-0.3,0.1-0.3,0.3v1.2c0,0.2,0.1,0.3,0.3,0.3h0.4c0.2,0,0.3-0.1,0.3-0.3v-1.2
		C51,30.1,50.9,30,50.7,30z"/>
	<path class="st3" d="M46.1,21v0.4c0,0.2,0.1,0.3,0.3,0.3h1.2c0.2,0,0.3-0.1,0.3-0.3V21c0-0.2-0.1-0.3-0.3-0.3h-1.2
		C46.3,20.7,46.1,20.8,46.1,21z"/>
	<path class="st3" d="M41.1,21v0.4c0,0.2,0.1,0.3,0.3,0.3h1.2c0.2,0,0.3-0.1,0.3-0.3V21c0-0.2-0.1-0.3-0.3-0.3h-1.2
		C41.3,20.7,41.1,20.8,41.1,21z"/>
</g>
<circle class="st20" cx="19.8" cy="17.3" r="1.3"/>
<circle class="st20" cx="23.3" cy="17.3" r="1.3"/>
<circle class="st20" cx="16.3" cy="17.3" r="1.3"/>
</svg>
