<svg id="_12_Shop_Open" style="enable-background:new 0 0 512 512" version="1.1" viewBox="0 0 512 512" xml:space="preserve" xmlns="http://www.w3.org/2000/svg"><style>.st0{fill:#d3d9d9}.st3{fill:#ededed}.st4{fill:#fedd8e}.st5{fill:#fc8a8a}.st6{fill:#fee9b4}.st7{fill:#fcb0b0}.st8{fill:#fdd367}.st9{fill:#f96364}.st10{fill:#7bde9e}.st11{fill:#51d27f}.st12{fill:#a7eabf}.st15{fill:#333}</style><path class="st0" d="M486.5 83.2v373.3h-461V83.2c0-16.2 13.1-29.3 29.3-29.3h402.5c16.2 0 29.2 13.1 29.2 29.3z"/><path d="M507.8 475v-8.6c0-5.5-4.5-10-10-10H14.2c-5.5 0-10 4.5-10 10v8.6c0 5.5 4.5 10 10 10h483.6c5.5 0 10-4.5 10-10z" style="fill:#a8b2b4"/><path class="st0" d="M38.1 456.4V485H14.2c-5.5 0-10-4.5-10-10v-8.6c0-5.5 4.5-10 10-10h23.9z"/><path d="M507.8 466.4v8.6c0 5.5-4.5 10-10 10h-23.9v-28.6h23.9c5.5 0 10 4.5 10 10z" style="fill:#7c8b8e"/><path class="st3" d="M428.1 53.9c16.2 0 29.3 13.1 29.3 29.3v373.2h29.2V83.2c0-16.2-13-29.3-29.2-29.3h-29.3z"/><path class="st3" d="M54.7 427.2v-344c0-4.5 3.6-8.1 8-8.1h386.6c4.5 0 8.1 3.6 8.1 8V427.3l-402.7-.1z"/><path class="st4" d="M76 118.2h72v15c0 9.6-3.8 18.7-10.6 25.4-14 14.1-36.7 14.1-50.8.2-6.8-6.8-10.6-16-10.6-25.6v-15zM436 118.2v15c0 9.6-3.8 18.7-10.6 25.4-14 14.1-36.7 14.1-50.8.2-6.8-6.8-10.6-16-10.6-25.6v-15h72zM220 118.2h72v15c0 9.6-3.8 18.7-10.6 25.4-14 14.1-36.7 14.1-50.8.2-6.8-6.8-10.6-16-10.6-25.6v-15z"/><path class="st5" d="M4 118.2h72v15c0 9.6-3.8 18.7-10.6 25.4-14 14.1-36.7 14.1-50.8.2C7.8 152 4 142.8 4 133.2v-15zM292 118.2h72v15c0 9.6-3.8 18.7-10.6 25.4-14 14.1-36.7 14.1-50.8.2-6.8-6.8-10.6-16-10.6-25.6v-15zM148 118.2h72v15c0 9.6-3.8 18.7-10.6 25.4-14 14.1-36.7 14.1-50.8.2-6.8-6.8-10.6-16-10.6-25.6v-15zM508 118.2v15c0 9.6-3.8 18.7-10.6 25.4-14 14.1-36.7 14.1-50.8.2-6.8-6.8-10.6-16-10.6-25.6v-15h72z"/><path class="st5" d="M98.9 27 76 118.2H4l26.3-74.7C33.7 33.6 43 27 53.4 27h45.5z"/><path class="st4" d="M161.7 27 148 118.2H76L98.9 27z"/><path class="st5" d="m224.6 27-4.6 91.2h-72L161.7 27z"/><path class="st4" d="m287.4 27 4.6 91.2h-72l4.6-91.2z"/><path class="st5" d="m350.3 27 13.7 91.2h-72L287.4 27z"/><path class="st4" d="m413.1 27 22.9 91.2h-72L350.3 27z"/><path class="st5" d="m481.7 43.4 26.3 74.8h-72L413.1 27h45.4c10.4 0 19.7 6.5 23.2 16.4z"/><path class="st6" d="M120.7 168.2c-19.5 4.7-39-7.3-43.7-26.8-.6-2.7-1-5.4-1-8.2v-15h17.4v15c0 16.5 11.2 31 27.3 35zM408.7 168.2c-19.5 4.7-39-7.3-43.7-26.8-.6-2.7-1-5.4-1-8.2v-15h17.4v15c0 16.5 11.2 31 27.3 35zM264.7 168.2c-19.5 4.7-39-7.3-43.7-26.8-.6-2.7-1-5.4-1-8.2v-15h17.4v15c0 16.5 11.2 31 27.3 35z"/><path class="st7" d="M48.7 168.2c-19.5 4.7-39-7.3-43.7-26.8-.6-2.7-1-5.4-1-8.2v-15h17.4v15c0 16.5 11.2 31 27.3 35zM336.7 168.2c-19.5 4.7-39-7.3-43.7-26.8-.6-2.7-1-5.4-1-8.2v-15h17.4v15c0 16.5 11.2 31 27.3 35zM192.7 168.2c-19.5 4.7-39-7.3-43.7-26.8-.6-2.7-1-5.4-1-8.2v-15h17.4v15c0 16.5 11.2 31 27.3 35zM480.7 168.2c-19.5 4.7-39-7.3-43.7-26.8-.6-2.7-1-5.4-1-8.2v-15h17.4v15c0 16.5 11.2 31 27.3 35z"/><path class="st7" d="m53.4 27-32 91.2H4l26.3-74.7C33.7 33.6 43 27 53.4 27z"/><path class="st6" d="m116.3 27-22.9 91.2H76L98.9 27z"/><path class="st7" d="m179.1 27-13.7 91.2H148L161.7 27z"/><path class="st6" d="m242 27-4.6 91.2H220l4.6-91.2z"/><path class="st7" d="M309.4 118.2H292L287.4 27h17.4z"/><path class="st6" d="M381.4 118.2H364L350.3 27h17.4z"/><path class="st7" d="M453.4 118.2H436L413.1 27h17.4z"/><path class="st8" d="M148 118.2v15c0 9.6-3.8 18.7-10.6 25.4-6.7 6.8-15.9 10.6-25.4 10.6-2.9 0-5.8-.4-8.7-1 16-4.1 27.2-18.4 27.3-34.9v-15.1H148zM436 118.2v15c0 9.6-3.8 18.7-10.6 25.4-6.7 6.8-15.9 10.6-25.4 10.6-2.9 0-5.8-.4-8.7-1 16-4.1 27.2-18.4 27.3-34.9v-15.1H436zM292 118.2v15c0 9.6-3.8 18.7-10.6 25.4-6.7 6.8-15.9 10.6-25.4 10.6-2.9 0-5.8-.4-8.7-1 16-4.1 27.2-18.4 27.3-34.9v-15.1H292z"/><path class="st9" d="M76 118.2v15c0 9.6-3.8 18.7-10.6 25.4-6.7 6.8-15.9 10.6-25.4 10.6-2.9 0-5.8-.4-8.7-1 6.3-1.6 12.1-4.9 16.7-9.5 6.8-6.7 10.6-15.9 10.6-25.4v-15.1H76zM364 118.2v15c0 9.6-3.8 18.7-10.6 25.4-6.7 6.8-15.9 10.6-25.4 10.6-2.9 0-5.8-.4-8.7-1 16-4.1 27.2-18.4 27.3-34.9v-15.1H364zM220 118.2v15c0 9.6-3.8 18.7-10.6 25.4-6.7 6.8-15.9 10.6-25.4 10.6-2.9 0-5.8-.4-8.7-1 16-4.1 27.2-18.4 27.3-34.9v-15.1H220zM508 118.2v15c0 9.6-3.8 18.7-10.6 25.4-6.7 6.8-15.9 10.6-25.4 10.6-2.9 0-5.8-.4-8.7-1 16-4.1 27.2-18.4 27.3-34.9v-15.1H508z"/><path class="st9" d="M98.9 27 76 118.2H58.6L81.5 27z"/><path class="st8" d="M161.7 27 148 118.2h-17.4L144.3 27z"/><path class="st9" d="m224.6 27-4.6 91.2h-17.4l4.6-91.2z"/><path class="st8" d="M292 118.2h-17.4L270 27h17.4z"/><path class="st9" d="M364 118.2h-17.4L332.9 27h17.4z"/><path class="st8" d="M436 118.2h-17.4L395.7 27h17.4z"/><path class="st9" d="M508 118.2h-17.4l-32-91.2c10.4 0 19.7 6.6 23.2 16.4l26.2 74.8z"/><path class="st4" d="M424.7 294.8v132.5h-99.1V294.8c0-2.4 1.9-4.3 4.2-4.3h90.6c2.4 0 4.3 1.9 4.3 4.3z"/><path class="st8" d="M424.7 294.8v132.5h-16V294.8c0-2.4-1.9-4.3-4.2-4.3h-.1 16c2.4 0 4.3 1.9 4.3 4.3z"/><path class="st6" d="M345.8 290.5c-2.4 0-4.3 1.9-4.3 4.2v132.6h-16V294.8c0-2.4 1.9-4.3 4.2-4.3h16.1z"/><path class="st10" d="M424.7 228.9v24.7c0 2.4-1.9 4.3-4.2 4.3h-90.6c-2.4 0-4.3-1.9-4.3-4.2v-24.8c0-2.4 1.9-4.3 4.2-4.3h90.6c2.4 0 4.3 1.9 4.3 4.3z"/><path class="st11" d="M424.7 228.9v24.7c0 2.4-1.9 4.3-4.2 4.3h-15.2c2.4 0 4.3-1.9 4.3-4.2v-24.8c0-2.4-1.9-4.3-4.2-4.3h-.1 15.1c2.4 0 4.3 1.9 4.3 4.3z"/><path class="st12" d="M345 258h-15.1c-2.4 0-4.3-1.9-4.3-4.2V229c0-2.4 1.9-4.3 4.2-4.3H345c-2.4 0-4.3 1.9-4.3 4.2v24.8c0 2.4 1.9 4.3 4.3 4.3z"/><path d="M293.1 233.7v151.7c0 5-4.1 9.1-9.1 9.1H96.4c-5 0-9.1-4.1-9.1-9.1V233.7c0-5 4.1-9.1 9.1-9.1H284c5 0 9.1 4.1 9.1 9.1z" style="fill:#d3f0fd"/><path d="M403 319v18c0 1.7-1.3 3-3 3h-49.8c-1.7 0-3-1.3-3-3v-18c0-1.6 1.3-3 2.9-3H400c1.6 0 3 1.3 3 2.9v.1z" style="fill:#a5e1fb"/><path class="st10" d="M256.1 332v29.8c0 3.8-3 6.8-6.8 6.8H131.1c-3.8 0-6.8-3-6.8-6.8V332c0-3.8 3-6.8 6.8-6.8h118.3c3.7 0 6.7 3.1 6.7 6.8z"/><path class="st12" d="M148.4 368.6H131c-3.8 0-6.8-3-6.8-6.8V332c0-3.8 3-6.8 6.8-6.8h17.4c-3.8 0-6.8 3-6.8 6.8v29.8c.1 3.7 3.1 6.7 6.8 6.8z"/><path class="st11" d="M256.1 332v29.8c0 3.8-3 6.8-6.8 6.8H232c3.8 0 6.8-3 6.8-6.8V332c0-3.8-3-6.8-6.8-6.8h17.4c3.7 0 6.7 3.1 6.7 6.8z"/><path class="st5" d="M207.2 267.7c0 9.4-7.6 17-17 17s-17-7.6-17-17 7.6-17 17-17 17 7.6 17 17z"/><path class="st7" d="M192.8 256.7c0 7.6-6.1 13.7-13.7 13.7-2 0-4-.4-5.8-1.3 0-.5-.1-1-.1-1.4 0-9.4 7.6-17 17-17 .4 0 .8 0 1.2.1.9 1.8 1.4 3.8 1.4 5.9z"/><path class="st9" d="M207.2 267.7c0 9.4-7.6 17-17 17-6.5 0-12.4-3.6-15.2-9.4 2.3 1.1 4.8 1.7 7.3 1.7 9.4 0 17-7.6 17-17 0-2.6-.6-5.2-1.8-7.6 6 2.8 9.7 8.7 9.7 15.3z"/><path class="st15" d="M403 362.2c-2.2 0-4 1.8-4 4v11.5c0 2.2 1.8 4 4 4s4-1.8 4-4v-11.5c0-2.2-1.7-4-3.9-4h-.1zM428.7 228.9c0-4.6-3.7-8.3-8.3-8.3h-90.5c-4.6 0-8.3 3.7-8.3 8.3v24.7c0 4.6 3.7 8.3 8.3 8.3h90.5c4.6 0 8.3-3.7 8.3-8.3v-24.7zm-8 24.7c0 .1-.1.3-.2.3h-90.6c-.1 0-.3-.1-.3-.2v-24.8c0-.1.1-.3.2-.3h90.6c.2 0 .3.1.3.3v24.7zM400 312h-49.8c-3.8 0-7 3-7 6.9V337c0 3.9 3.1 7 7 7H400c3.9 0 7-3.1 7-7v-18c0-3.8-3-7-6.9-7h-.1zm-1 24h-47.8v-16H399v16zM284 220.6H96.4c-7.2 0-13.1 5.9-13.1 13.1v151.7c0 7.2 5.9 13.1 13.1 13.1H284c7.2 0 13.1-5.9 13.1-13.1V233.7c0-7.2-5.9-13.1-13.1-13.1zm5.1 164.8c0 2.8-2.3 5.1-5.1 5.1H96.4c-2.8 0-5.1-2.3-5.1-5.1V233.7c0-2.8 2.3-5.1 5.1-5.1H284c2.8 0 5.1 2.3 5.1 5.1v151.7z"/><path class="st15" d="M249.4 321.2h-10.8l-29.1-45.1c4.7-10.6-.1-23-10.7-27.7-10.6-4.7-23 .1-27.7 10.7-2.4 5.4-2.4 11.6 0 17l-29.1 45h-10.9c-6 0-10.8 4.8-10.8 10.8v29.8c0 6 4.8 10.8 10.8 10.8h118.2c6 0 10.8-4.8 10.8-10.8V332c0-5.9-4.8-10.8-10.7-10.8zm-59.2-66.5c7.2 0 13 5.8 13 13s-5.8 13-13 13-13-5.8-13-13 5.8-13 13-13zm-14.1 28.5c8 7.3 20.4 7.3 28.3-.2l24.7 38.1h-77.5l24.5-37.9zm76 78.6c0 1.5-1.3 2.8-2.8 2.8H131.1c-1.5 0-2.8-1.3-2.8-2.8V332c0-1.5 1.3-2.8 2.8-2.8h118.3c1.5 0 2.7 1.3 2.7 2.8v29.8z"/><path class="st15" d="M497.8 452.4h-7.3V168.6c3.6-1.9 6.8-4.3 9.7-7.2 7.6-7.4 11.8-17.6 11.8-28.3v-15.2c0-.2-.2-1.1-.2-1.3l-26.3-74.7c-4-11.5-14.8-19.1-27-19.1H53.4c-12.1 0-22.9 7.7-26.9 19.2L.4 116.4c-.2.4-.4 1.7-.4 1.7v15.1c0 14.9 8.3 28.5 21.5 35.5v283.8h-7.3c-7.7 0-14 6.3-14 14v8.6c0 7.7 6.3 14 14 14h483.6c7.7 0 14-6.3 14-14v-8.6c0-7.8-6.3-14.1-14-14.1zm6.2-319.2c-.1 17.6-14.4 31.9-32 32-17.7 0-32-14.3-32-32v-11.1h64v11.1zm-449.3 298 402.7.1c2.2 0 4-1.8 4-4V171.8c6.9 1.9 14.2 1.9 21.1 0v280.6h-453V171.8c6.9 1.9 14.3 1.9 21.2-.1v255.5c0 2.2 1.8 4 4 4zm74.5-261.9c4.1-2 7.8-4.6 11-7.8 3.2-3.1 5.9-6.8 7.8-10.8 9.6 19.8 33.4 28.2 53.2 18.6 4.1-2 7.8-4.6 11-7.8 3.2-3.1 5.9-6.8 7.8-10.8 9.6 19.8 33.4 28.2 53.2 18.6 4.1-2 7.8-4.6 11-7.8 3.2-3.1 5.9-6.8 7.8-10.8 9.6 19.8 33.4 28.2 53.2 18.6 4.1-2 7.8-4.6 11-7.8 3.2-3.1 5.9-6.8 7.8-10.8 9.6 19.8 33.4 28.2 53.2 18.6 4.1-2 7.8-4.6 11-7.8 3.2-3.1 5.9-6.8 7.8-10.8 3.8 7.7 9.8 14 17.4 18v254.7h-24.7V294.8c0-4.6-3.7-8.3-8.3-8.3h-90.5c-4.6 0-8.3 3.7-8.3 8.3v128.5l-262.9-.1V168.5c3.5-1.9 6.7-4.2 9.5-7.1 3.2-3.1 5.9-6.8 7.8-10.8 9.6 19.9 33.4 28.2 53.2 18.7zM80 133.2v-11h64v11c-.1 17.6-14.4 31.9-32 32-17.7 0-32-14.3-32-32zm72 0v-11h64v11c-.1 17.6-14.4 31.9-32 32-17.7 0-32-14.3-32-32zm144 0v-11h64v11c-.1 17.6-14.4 31.9-32 32-17.7 0-32-14.3-32-32zm72 0v-11h64v11c-.1 17.6-14.4 31.9-32 32-17.7 0-32-14.3-32-32zm52.7 161.5v128.5h-91.1V294.8c0-.1.1-.3.2-.3h90.6c.1 0 .3.1.3.2zM458.5 31c8.7 0 16.5 5.5 19.4 13.7l24.4 69.4h-63.2L418.2 31h40.3zM410 31l20.9 83.1h-63.4L355 31h55zm-63.1 0 12.5 83.1h-63.5L291.6 31h55.3zm-118.5 0h55.2l4.2 83.1h-63.6l4.2-83.1zm-4.4 91.2h64v11c-.1 17.6-14.4 31.9-32 32-17.7 0-32-14.3-32-32v-11zM220.4 31l-4.2 83.1h-63.5L165.1 31h55.3zM157 31l-12.5 83.1H81.2L102 31h55zM34.1 44.8C36.9 36.5 44.7 31 53.4 31h40.4l-20.9 83.1H9.7l24.4-69.3zM17.4 155.9c-6.1-6-9.5-14.2-9.4-22.7v-11h64v11c0 8.5-3.4 16.6-9.4 22.6-12.4 12.5-32.7 12.5-45.2.1zM503.8 475c0 3.3-2.7 6-6 6H14.2c-3.3 0-6-2.7-6-6v-8.6c0-3.3 2.7-6 6-6h483.6c3.3 0 6 2.7 6 6v8.6z"/></svg>