<?xml version="1.0" encoding="UTF-8"?>
<!DOCTYPE svg PUBLIC "-//W3C//DTD SVG 1.1//EN" "http://www.w3.org/Graphics/SVG/1.1/DTD/svg11.dtd">
<svg xmlns="http://www.w3.org/2000/svg" version="1.1" width="666px" height="206px" style="shape-rendering:geometricPrecision; text-rendering:geometricPrecision; image-rendering:optimizeQuality; fill-rule:evenodd; clip-rule:evenodd" xmlns:xlink="http://www.w3.org/1999/xlink">
<g><path style="opacity:0.957" fill="#000000" d="M 435.5,5.5 C 436.693,5.97041 437.36,6.97041 437.5,8.5C 436.928,10.9211 436.428,13.2545 436,15.5C 439.978,12.645 443.978,12.3116 448,14.5C 449.954,27.6587 448.121,40.1587 442.5,52C 451.223,60.6149 456.39,71.1149 458,83.5C 460.569,99.7999 459.402,115.8 454.5,131.5C 451.031,123.632 447.865,115.632 445,107.5C 425.793,68.4154 397.293,60.0821 359.5,82.5C 359.729,78.4059 359.229,74.4059 358,70.5C 351.632,72.7176 345.132,74.551 338.5,76C 319.377,75.7873 300.377,77.1207 281.5,80C 276,82.8333 271.833,87 269,92.5C 264.735,104.745 262.235,117.411 261.5,130.5C 252.557,113.618 249.057,95.6183 251,76.5C 254.503,57.135 265.337,43.8017 283.5,36.5C 289.578,27.1254 297.912,20.6254 308.5,17C 318.576,13.8199 328.909,11.8199 339.5,11C 366.171,10.7126 392.837,10.7126 419.5,11C 425.617,11.0922 430.951,9.25887 435.5,5.5 Z"/></g>
<g><path style="opacity:0.949" fill="#000000" d="M 111.5,94.5 C 118.863,94.1694 126.197,94.5027 133.5,95.5C 119.927,130.723 106.26,165.889 92.5,201C 85.1667,201.667 77.8333,201.667 70.5,201C 84.463,165.611 98.1296,130.111 111.5,94.5 Z"/></g>
<g><path style="opacity:0.961" fill="#000000" d="M 67.5,119.5 C 68.5,119.5 69.5,119.5 70.5,119.5C 70.8315,128.525 70.4982,137.525 69.5,146.5C 59.7459,149.973 50.0792,153.64 40.5,157.5C 50.0792,161.36 59.7459,165.027 69.5,168.5C 70.4982,177.475 70.8315,186.475 70.5,195.5C 48.3798,187.57 26.3798,179.236 4.5,170.5C 3.16667,161.833 3.16667,153.167 4.5,144.5C 25.7009,136.39 46.7009,128.056 67.5,119.5 Z"/></g>
<g><path style="opacity:0.947" fill="#000000" d="M 591.5,119.5 C 613.768,128.033 636.101,136.367 658.5,144.5C 658.5,153.167 658.5,161.833 658.5,170.5C 636.38,178.43 614.38,186.764 592.5,195.5C 591.502,186.525 591.168,177.525 591.5,168.5C 602.239,165.301 612.906,161.801 623.5,158C 613.098,153.477 602.431,149.643 591.5,146.5C 591.5,137.5 591.5,128.5 591.5,119.5 Z"/></g>
<g><path style="opacity:0.949" fill="#000000" d="M 154.5,127.5 C 184.833,127.5 215.167,127.5 245.5,127.5C 245.5,134.5 245.5,141.5 245.5,148.5C 234.167,148.5 222.833,148.5 211.5,148.5C 211.5,147.167 211.5,145.833 211.5,144.5C 200.495,144.333 189.495,144.5 178.5,145C 174.607,148.39 171.273,152.223 168.5,156.5C 171.687,159.853 174.687,163.353 177.5,167C 188.828,167.5 200.162,167.667 211.5,167.5C 211.5,166.5 211.5,165.5 211.5,164.5C 205.833,164.5 200.167,164.5 194.5,164.5C 194.5,160.167 194.5,155.833 194.5,151.5C 211.5,151.5 228.5,151.5 245.5,151.5C 245.5,162.833 245.5,174.167 245.5,185.5C 215.165,185.667 184.832,185.5 154.5,185C 145.813,175.781 137.48,166.281 129.5,156.5C 137.482,146.519 145.815,136.852 154.5,127.5 Z"/></g>
<g><path style="opacity:0.965" fill="#000000" d="M 464.5,127.5 C 476.5,127.5 488.5,127.5 500.5,127.5C 500.5,146.833 500.5,166.167 500.5,185.5C 488.5,185.5 476.5,185.5 464.5,185.5C 464.5,166.167 464.5,146.833 464.5,127.5 Z"/></g>
<g><path style="opacity:0.94" fill="#000000" d="M 533.5,127.5 C 547.183,127.167 560.85,127.501 574.5,128.5C 563.475,137.863 552.475,147.196 541.5,156.5C 553.149,165.486 564.482,174.819 575.5,184.5C 562.179,185.666 548.846,185.833 535.5,185C 524.333,175.833 513.167,166.667 502,157.5C 502.546,154.907 504.046,152.74 506.5,151C 515.693,143.302 524.693,135.468 533.5,127.5 Z"/></g>
<g><path style="opacity:0.949" fill="#000000" d="M 295.5,131.5 C 306.211,131.188 316.878,131.688 327.5,133C 337.526,135.507 347.526,138.007 357.5,140.5C 363.983,139.263 370.316,137.429 376.5,135C 389.748,132.696 403.081,132.029 416.5,133C 426.842,133.834 437.175,134.667 447.5,135.5C 446.768,141.824 446.101,148.158 445.5,154.5C 435.156,155.859 424.823,157.359 414.5,159C 423.518,159.168 432.518,159.668 441.5,160.5C 440.12,170.043 434.786,175.877 425.5,178C 408.425,181.518 391.425,181.185 374.5,177C 367.161,171.828 363.327,164.661 363,155.5C 361.261,154.106 359.261,153.439 357,153.5C 345.589,155.648 334.089,157.814 322.5,160C 331.192,160.464 339.858,160.464 348.5,160C 347.781,165.389 345.781,170.222 342.5,174.5C 321.064,183.992 299.731,183.826 278.5,174C 273.09,169.014 269.923,162.847 269,155.5C 268,154.5 267,153.5 266,152.5C 265.169,146.523 264.669,140.523 264.5,134.5C 275.059,134.283 285.392,133.283 295.5,131.5 Z M 300.5,146.5 C 306.833,146.5 313.167,146.5 319.5,146.5C 319.5,147.5 319.5,148.5 319.5,149.5C 313.206,149.91 307.039,150.91 301,152.5C 300.505,150.527 300.338,148.527 300.5,146.5 Z M 392.5,148.5 C 417.549,148.128 417.549,149.461 392.5,152.5C 392.5,151.167 392.5,149.833 392.5,148.5 Z M 407.5,159.5 C 408.833,159.5 410.167,159.5 411.5,159.5C 411.5,160.833 411.5,162.167 411.5,163.5C 405.158,163.666 398.825,163.5 392.5,163C 397.506,161.6 402.506,160.433 407.5,159.5 Z M 316.5,160.5 C 317.5,160.5 318.5,160.5 319.5,160.5C 319.5,162.5 319.5,164.5 319.5,166.5C 313.167,166.5 306.833,166.5 300.5,166.5C 300.5,165.5 300.5,164.5 300.5,163.5C 306.076,163.129 311.409,162.129 316.5,160.5 Z"/></g>
</svg>
